# xmcd
# 
# Track frame offsets:
#     182
#     13795
#     28340
#     39917
#     52292
#     65347
#     78040
#     95282
#     106515
#     118617
#     131287
# 
# Disc length: 1897
# 
# Revision: 8
# Processed by: cddbd v1.5.2PL0 Copyright (c) Steve Scherf et al.
# Submitted via: fre:ac v1.0.17
# 
DISCID=8107670b
DTITLE=Various Artist - Motown Legends - Volume 2
DYEAR=1995
DGENRE=R&B
TTITLE0=Four Tops - Reach Out, I'll Be There
TTITLE1=Stevie Wonder -  - Fingertips (Part Ii)
TTITLE2=Diana Ross and The Supremes  - Where Did Our Love Go?
TTITLE3=Temptations  - My Girl
TTITLE4=Isley Brothers - This Old Heart Of Mine (Is Weak For You)
TTITLE5=Marvin Gaye  - I'll Be Doggone
TTITLE6=Stevie Wonder - Blowin' In The Wind
TTITLE7=Marvelettes - Please Mr. Postman
TTITLE8=Temptations  - Get Ready
TTITLE9=Diana Ross and The Supremes - Love Is Here And Now You're Gone
TTITLE10=Jr. Walker and The All Stars - What Does It Take (To Win Your Love?)
EXTD=
EXTT0=Four Tops
EXTT1=Stevie Wonder
EXTT2=The Supremes
EXTT3=Tempations
EXTT4=Isley Brothers
EXTT5=Marvin Gaye
EXTT6=Stevie Wonder
EXTT7=The Mavelettes
EXTT8=Smokey Robinson and the Miracles
EXTT9=The Supremes
EXTT10=Jr. Walker and The All-Stars
PLAYORDER=
